<svg xmlns="http://www.w3.org/2000/svg" viewBox="0 0 64 64">
  <rect x="8" y="8" width="48" height="48" rx="14" fill="#ea580c"/>
  <path d="M22 16h16l8 8v24H22z" fill="#fff7ed"/>
  <path d="M38 16v8h8" fill="#fdba74"/>
  <path d="M27 30h14M27 36h10" stroke="#fb923c" stroke-width="3" stroke-linecap="round"/>
  <circle cx="38" cy="42" r="7" fill="#fed7aa"/>
  <path d="M38 38v8M35 40c.8-1.2 1.8-1.8 3-1.8 1.9 0 3 1 3 2.3 0 3.3-6 1.8-6 4.6 0 1 1 1.9 2.7 1.9 1.1 0 2.2-.5 2.9-1.5" stroke="#9a3412" stroke-width="2" fill="none" stroke-linecap="round"/>
</svg>
